<?xml version="1.0" encoding="iso-8859-1"?>
<!-- Generator: Adobe Illustrator 16.0.0, SVG Export Plug-In . SVG Version: 6.00 Build 0)  -->
<!DOCTYPE svg PUBLIC "-//W3C//DTD SVG 1.1//EN" "http://www.w3.org/Graphics/SVG/1.1/DTD/svg11.dtd">
<svg version="1.1" id="Capa_1" xmlns="http://www.w3.org/2000/svg" xmlns:xlink="http://www.w3.org/1999/xlink" x="0px" y="0px"
	 width="485.211px" height="485.211px" viewBox="0 0 485.211 485.211" style="enable-background:new 0 0 485.211 485.211;"
	 xml:space="preserve">
<g>
	<g>
		<path d="M422.961,197.892c0.686-5.274,1.601-10.487,1.601-15.936c0-66.989-54.287-121.304-121.307-121.304
			c-39.623,0-74.477,19.28-96.602,48.687c-7.967-1.925-16.169-3.197-24.698-3.197c-58.639,0-106.139,47.501-106.139,106.141
			c0,1.657,0.413,3.139,0.472,4.795C32.31,230.02,0,270.238,0,318.416C0,377.059,47.504,424.56,106.139,424.56h257.77
			c67.02,0,121.303-54.277,121.303-121.302C485.211,257.828,459.947,218.676,422.961,197.892z M379.076,363.906H106.139
			c-25.114,0-45.488-20.372-45.488-45.49c0-25.108,20.374-45.485,45.488-45.485h272.938c25.109,0,45.485,20.377,45.485,45.485
			C424.562,343.534,404.186,363.906,379.076,363.906z"/>
		<polygon points="217.315,288.095 237.573,348.748 267.897,348.748 247.643,288.095 		"/>
		<polygon points="156.665,288.095 176.922,348.748 207.246,348.748 186.991,288.095 		"/>
		<path d="M106.139,288.095c-16.701,0-30.322,13.628-30.322,30.321c0,16.736,13.621,30.332,30.322,30.332h40.457l-20.257-60.653
			H106.139z"/>
		<path d="M288.097,288.095h-10.104l19.583,58.73c12.022-4.032,20.848-15.015,20.848-28.409
			C318.423,301.723,304.828,288.095,288.097,288.095z"/>
	</g>
</g>
<g>
</g>
<g>
</g>
<g>
</g>
<g>
</g>
<g>
</g>
<g>
</g>
<g>
</g>
<g>
</g>
<g>
</g>
<g>
</g>
<g>
</g>
<g>
</g>
<g>
</g>
<g>
</g>
<g>
</g>
</svg>
